<svg xmlns="http://www.w3.org/2000/svg" viewBox="0 0 32 32" width="32" height="32">
  <!-- Background circle -->
  <circle cx="16" cy="16" r="14" fill="#0D1117" stroke="#00D9FF" stroke-width="1.5"/>
  
  <!-- Lobster body -->
  <ellipse cx="16" cy="18" rx="7" ry="6" fill="#FF9500"/>
  
  <!-- Left claw -->
  <path d="M10 14 Q6 10 5 7 Q4 5 7 5 Q10 5 11 8" fill="#FF9500" stroke="#0D1117" stroke-width="0.5"/>
  
  <!-- Right claw -->
  <path d="M22 14 Q26 10 27 7 Q28 5 25 5 Q22 5 21 8" fill="#FF9500" stroke="#0D1117" stroke-width="0.5"/>
  
  <!-- Eyes -->
  <circle cx="13" cy="16" r="2" fill="#0D1117"/>
  <circle cx="19" cy="16" r="2" fill="#0D1117"/>
  <circle cx="13.5" cy="15.5" r="0.8" fill="#00D9FF"/>
  <circle cx="19.5" cy="15.5" r="0.8" fill="#00D9FF"/>
  
  <!-- Antennae -->
  <path d="M14 13 Q12 9 11 7" fill="none" stroke="#00D9FF" stroke-width="0.8" stroke-linecap="round"/>
  <path d="M18 13 Q20 9 21 7" fill="none" stroke="#00D9FF" stroke-width="0.8" stroke-linecap="round"/>
</svg>
