<svg xmlns="http://www.w3.org/2000/svg" viewBox="0 0 128 128" width="128" height="128">
  <!-- Background circle -->
  <circle cx="64" cy="64" r="60" fill="#0D1117" stroke="#00D9FF" stroke-width="3"/>
  
  <!-- Lobster body/claw base -->
  <ellipse cx="64" cy="72" rx="28" ry="24" fill="#FF9500"/>
  
  <!-- Left claw -->
  <path d="M38 58 Q28 48 24 36 Q22 28 30 26 Q38 24 42 32 L46 44" fill="#FF9500" stroke="#0D1117" stroke-width="2"/>
  <path d="M38 52 Q30 44 28 36" fill="none" stroke="#0D1117" stroke-width="2" stroke-linecap="round"/>
  
  <!-- Right claw -->
  <path d="M90 58 Q100 48 104 36 Q106 28 98 26 Q90 24 86 32 L82 44" fill="#FF9500" stroke="#0D1117" stroke-width="2"/>
  <path d="M90 52 Q98 44 100 36" fill="none" stroke="#0D1117" stroke-width="2" stroke-linecap="round"/>
  
  <!-- Eyes -->
  <circle cx="52" cy="66" r="8" fill="#0D1117"/>
  <circle cx="76" cy="66" r="8" fill="#0D1117"/>
  <circle cx="54" cy="64" r="3" fill="#00D9FF"/>
  <circle cx="78" cy="64" r="3" fill="#00D9FF"/>
  
  <!-- Antennae -->
  <path d="M56 56 Q52 44 48 38" fill="none" stroke="#00D9FF" stroke-width="2" stroke-linecap="round"/>
  <path d="M72 56 Q76 44 80 38" fill="none" stroke="#00D9FF" stroke-width="2" stroke-linecap="round"/>
  
  <!-- Smile -->
  <path d="M56 82 Q64 90 72 82" fill="none" stroke="#0D1117" stroke-width="2" stroke-linecap="round"/>
  
  <!-- Score indicator -->
  <text x="64" y="108" text-anchor="middle" font-family="monospace" font-size="14" font-weight="bold" fill="#00D9FF">CLAWPIPE</text>
</svg>
